<svg width="219" height="35" viewBox="0 0 219 35" fill="none" xmlns="http://www.w3.org/2000/svg">
<path d="M29.5798 25.3699V33.7262H0V25.7136L16.5977 8.85054H0.190292V0.494202H29.0301V8.50684L12.5381 25.3699H29.5798Z" fill="#FCEB07"/>
<path d="M60.6399 25.1121V33.7262H32.8996V0.494202H60.0479V9.10832H44.444V13.2328H57.0244V21.181H44.444V25.1121H60.6399Z" fill="#FCEB07"/>
<path d="M78.6749 22.7062H75.5034V33.7262H64.2127V0.494202H81.9522C90.6633 0.494202 95.188 4.21052 95.188 11.6217C95.188 16.498 93.2005 19.7847 89.289 21.4388L97.0275 33.7262H84.4894L78.6961 22.7062H78.6749ZM75.5034 14.9943H79.6264C82.5442 14.9943 83.6437 14.178 83.6437 11.9224C83.6437 9.66684 82.5442 8.85054 79.6264 8.85054H75.5034V14.9943Z" fill="#FCEB07"/>
<path d="M130.477 17.1208C130.477 27.9905 124.282 34.2417 113.879 34.2417C103.477 34.2417 97.2392 27.9905 97.2392 17.1208C97.2392 6.25114 103.54 0 113.879 0C124.218 0 130.477 6.25114 130.477 17.1208ZM109.037 17.1208C109.037 22.9209 110.517 25.4342 113.9 25.4342C117.283 25.4342 118.7 22.9209 118.7 17.1208C118.7 11.3208 117.262 8.80745 113.9 8.80745C110.539 8.80745 109.037 11.3208 109.037 17.1208Z" fill="#FCEB07"/>
<path d="M163.82 9.10832H153.608V33.7262H142.063V9.10832H131.809V0.494202H163.82V9.10832Z" fill="#FCEB07"/>
<path d="M198.347 17.1208C198.347 27.9905 192.152 34.2417 181.75 34.2417C171.347 34.2417 165.11 27.9905 165.11 17.1208C165.11 6.25114 171.41 0 181.75 0C192.089 0 198.347 6.25114 198.347 17.1208ZM176.908 17.1208C176.908 22.9209 178.388 25.4342 181.771 25.4342C185.154 25.4342 186.57 22.9209 186.57 17.1208C186.57 11.3208 185.133 8.80745 181.771 8.80745C178.409 8.80745 176.908 11.3208 176.908 17.1208Z" fill="#FCEB07"/>
<path d="M218.962 0.494202V33.7262H207.904V11.4713C205.769 13.3832 203.295 14.8439 200.61 15.2521L199.976 5.84312C204.035 5.392 208.496 2.87866 209.976 0.515683H218.941L218.962 0.494202Z" fill="#FCEB07"/>
</svg>
